HIERARCHY
ROOT Hips
{
  OFFSET 5.72205e-005 65.662 3.42586
  CHANNELS 6 Xposition Yposition Zposition Zrotation Xrotation Yrotation
  JOINT Chest
  {
    OFFSET 0 8.7983 -4.7612
    CHANNELS 6 Xposition Yposition Zposition Zrotation Xrotation Yrotation
    JOINT Chest2
    {
      OFFSET 0 8.0291 0.4195
      CHANNELS 6 Xposition Yposition Zposition Zrotation Xrotation Yrotation
      JOINT Chest3
      {
        OFFSET 0 9.9351 -2.2114
        CHANNELS 6 Xposition Yposition Zposition Zrotation Xrotation Yrotation
        JOINT Neck
        {
          OFFSET 0 22.3885 -0.4656
          CHANNELS 6 Xposition Yposition Zposition Zrotation Xrotation Yrotation
          JOINT Head
          {
            OFFSET -0.0001 12.643 3.4389
            CHANNELS 6 Xposition Yposition Zposition Zrotation Xrotation Yrotation
            End Site
            {
              OFFSET 0.0001 17.6655 0.5274
            }
          }
        }
        JOINT LeftCollar
        {
          OFFSET 2.2603 21.606 7.4023
          CHANNELS 6 Xposition Yposition Zposition Zrotation Xrotation Yrotation
          JOINT LeftShoulder
          {
            OFFSET 13.5163 -1.1332 -5.0146
            CHANNELS 6 Xposition Yposition Zposition Zrotation Xrotation Yrotation
            JOINT LeftElbow
            {
              OFFSET -0.0995 -28.05 -0.2431
              CHANNELS 6 Xposition Yposition Zposition Zrotation Xrotation Yrotation
              JOINT LeftWrist
              {
                OFFSET 0.0679 -23.3996 -0.1402
                CHANNELS 6 Xposition Yposition Zposition Zrotation Xrotation Yrotation
                JOINT LeftFinger1
                {
                  OFFSET 0.7932 -9.069 2.5189
                  CHANNELS 6 Xposition Yposition Zposition Zrotation Xrotation Yrotation
                  JOINT LeftFinger11
                  {
                    OFFSET -0.8272 -3.3923 0.5977
                    CHANNELS 6 Xposition Yposition Zposition Zrotation Xrotation Yrotation
                    JOINT LeftFinger12
                    {
                      OFFSET -0.5649 -2.3158 0.4082
                      CHANNELS 6 Xposition Yposition Zposition Zrotation Xrotation Yrotation
                      End Site
                      {
                        OFFSET -0.4919 -1.6479 0.2673
                      }
                    }
                  }
                }
                JOINT LeftFinger2
                {
                  OFFSET 0.9159 -9.2044 0.2193
                  CHANNELS 6 Xposition Yposition Zposition Zrotation Xrotation Yrotation
                  JOINT LeftFinger21
                  {
                    OFFSET 0.0117 -4.1944 -0.0248
                    CHANNELS 6 Xposition Yposition Zposition Zrotation Xrotation Yrotation
                    JOINT LeftFinger22
                    {
                      OFFSET 0.0071 -2.3249 -0.0142
                      CHANNELS 6 Xposition Yposition Zposition Zrotation Xrotation Yrotation
                      End Site
                      {
                        OFFSET -0.1475 -2.0882 0.0028
                      }
                    }
                  }
                }
                JOINT LeftFinger3
                {
                  OFFSET 0.6113 -8.7231 -2.0637
                  CHANNELS 6 Xposition Yposition Zposition Zrotation Xrotation Yrotation
                  JOINT LeftFinger31
                  {
                    OFFSET -0.1927 -3.8059 -0.2383
                    CHANNELS 6 Xposition Yposition Zposition Zrotation Xrotation Yrotation
                    JOINT LeftFinger32
                    {
                      OFFSET -0.1091 -2.1688 -0.1362
                      CHANNELS 6 Xposition Yposition Zposition Zrotation Xrotation Yrotation
                      End Site
                      {
                        OFFSET -0.2358 -1.9176 -0.0906
                      }
                    }
                  }
                }
                JOINT LeftFinger4
                {
                  OFFSET -0.6151 -8.0947 -3.5641
                  CHANNELS 6 Xposition Yposition Zposition Zrotation Xrotation Yrotation
                  JOINT LeftFinger41
                  {
                    OFFSET -0.4882 -2.341 -0.6462
                    CHANNELS 6 Xposition Yposition Zposition Zrotation Xrotation Yrotation
                    JOINT LeftFinger42
                    {
                      OFFSET -0.3575 -1.7167 -0.4742
                      CHANNELS 6 Xposition Yposition Zposition Zrotation Xrotation Yrotation
                      End Site
                      {
                        OFFSET -0.4187 -1.5237 -0.3496
                      }
                    }
                  }
                }
                JOINT LeftFinger0
                {
                  OFFSET -1.42 -1.8761 1.4223
                  CHANNELS 6 Xposition Yposition Zposition Zrotation Xrotation Yrotation
                  JOINT LeftFinger01
                  {
                    OFFSET -1.1471 -3.4929 2.6334
                    CHANNELS 6 Xposition Yposition Zposition Zrotation Xrotation Yrotation
                    JOINT LeftFinger02
                    {
                      OFFSET -0.823 -2.3 1.6571
                      CHANNELS 6 Xposition Yposition Zposition Zrotation Xrotation Yrotation
                      End Site
                      {
                        OFFSET -0.5822 -1.6914 1.1582
                      }
                    }
                  }
                }
              }
            }
          }
        }
        JOINT RightCollar
        {
          OFFSET -2.2603 21.606 7.4023
          CHANNELS 6 Xposition Yposition Zposition Zrotation Xrotation Yrotation
          JOINT RightShoulder
          {
            OFFSET -13.5187 -1.1334 -5.0155
            CHANNELS 6 Xposition Yposition Zposition Zrotation Xrotation Yrotation
            JOINT RightElbow
            {
              OFFSET 0.0994 -28.0499 -0.2431
              CHANNELS 6 Xposition Yposition Zposition Zrotation Xrotation Yrotation
              JOINT RightWrist
              {
                OFFSET -0.0679 -23.3996 -0.1402
                CHANNELS 6 Xposition Yposition Zposition Zrotation Xrotation Yrotation
                JOINT RightFinger1
                {
                  OFFSET -0.7932 -9.0691 2.5189
                  CHANNELS 6 Xposition Yposition Zposition Zrotation Xrotation Yrotation
                  JOINT RightFinger11
                  {
                    OFFSET 0.8272 -3.3923 0.5977
                    CHANNELS 6 Xposition Yposition Zposition Zrotation Xrotation Yrotation
                    JOINT RightFinger12
                    {
                      OFFSET 0.565 -2.3158 0.4082
                      CHANNELS 6 Xposition Yposition Zposition Zrotation Xrotation Yrotation
                      End Site
                      {
                        OFFSET 0.4919 -1.6479 0.2673
                      }
                    }
                  }
                }
                JOINT RightFinger2
                {
                  OFFSET -0.916 -9.2044 0.2193
                  CHANNELS 6 Xposition Yposition Zposition Zrotation Xrotation Yrotation
                  JOINT RightFinger21
                  {
                    OFFSET -0.0117 -4.1944 -0.0248
                    CHANNELS 6 Xposition Yposition Zposition Zrotation Xrotation Yrotation
                    JOINT RightFinger22
                    {
                      OFFSET -0.0071 -2.3249 -0.0142
                      CHANNELS 6 Xposition Yposition Zposition Zrotation Xrotation Yrotation
                      End Site
                      {
                        OFFSET 0.1475 -2.0882 0.0028
                      }
                    }
                  }
                }
                JOINT RightFinger3
                {
                  OFFSET -0.6113 -8.7231 -2.0637
                  CHANNELS 6 Xposition Yposition Zposition Zrotation Xrotation Yrotation
                  JOINT RightFinger31
                  {
                    OFFSET 0.1927 -3.8059 -0.2383
                    CHANNELS 6 Xposition Yposition Zposition Zrotation Xrotation Yrotation
                    JOINT RightFinger32
                    {
                      OFFSET 0.1091 -2.1688 -0.1362
                      CHANNELS 6 Xposition Yposition Zposition Zrotation Xrotation Yrotation
                      End Site
                      {
                        OFFSET 0.2358 -1.9176 -0.0906
                      }
                    }
                  }
                }
                JOINT RightFinger4
                {
                  OFFSET 0.6151 -8.0947 -3.564
                  CHANNELS 6 Xposition Yposition Zposition Zrotation Xrotation Yrotation
                  JOINT RightFinger41
                  {
                    OFFSET 0.4882 -2.341 -0.6462
                    CHANNELS 6 Xposition Yposition Zposition Zrotation Xrotation Yrotation
                    JOINT RightFinger42
                    {
                      OFFSET 0.3574 -1.7166 -0.4742
                      CHANNELS 6 Xposition Yposition Zposition Zrotation Xrotation Yrotation
                      End Site
                      {
                        OFFSET 0.4187 -1.5237 -0.3496
                      }
                    }
                  }
                }
                JOINT RightFinger0
                {
                  OFFSET 1.4199 -1.8761 1.4221
                  CHANNELS 6 Xposition Yposition Zposition Zrotation Xrotation Yrotation
                  JOINT RightFinger01
                  {
                    OFFSET 1.1472 -3.4929 2.6336
                    CHANNELS 6 Xposition Yposition Zposition Zrotation Xrotation Yrotation
                    JOINT RightFinger02
                    {
                      OFFSET 0.8229 -2.3 1.6571
                      CHANNELS 6 Xposition Yposition Zposition Zrotation Xrotation Yrotation
                      End Site
                      {
                        OFFSET 0.5822 -1.6914 1.1582
                      }
                    }
                  }
                }
              }
            }
          }
        }
      }
    }
  }
  JOINT RightHip
  {
    OFFSET -9.412 3.9771 -0.7758
    CHANNELS 6 Xposition Yposition Zposition Zrotation Xrotation Yrotation
    JOINT RightKnee
    {
      OFFSET -0.7531 -40.938 0
      CHANNELS 6 Xposition Yposition Zposition Zrotation Xrotation Yrotation
      JOINT RightAnkle
      {
        OFFSET 0 -40.1986 0
        CHANNELS 6 Xposition Yposition Zposition Zrotation Xrotation Yrotation
        JOINT RightToe
        {
          OFFSET 0 -4.4182 9.239
          CHANNELS 6 Xposition Yposition Zposition Zrotation Xrotation Yrotation
          End Site
          {
            OFFSET 0 0 6.1981
          }
        }
      }
    }
  }
  JOINT LeftHip
  {
    OFFSET 9.4119 3.9773 -0.7758
    CHANNELS 6 Xposition Yposition Zposition Zrotation Xrotation Yrotation
    JOINT LeftKnee
    {
      OFFSET 0.7532 -40.9383 0
      CHANNELS 6 Xposition Yposition Zposition Zrotation Xrotation Yrotation
      JOINT LeftAnkle
      {
        OFFSET 0 -40.1986 0
        CHANNELS 6 Xposition Yposition Zposition Zrotation Xrotation Yrotation
        JOINT LeftToe
        {
          OFFSET 0 -4.4182 9.239
          CHANNELS 6 Xposition Yposition Zposition Zrotation Xrotation Yrotation
          End Site
          {
            OFFSET 0 0 6.1981
          }
        }
      }
    }
  }
}
MOTION
Frames:	4
Frame Time:	0.0333333
-0.0169842 2.90652 -1.10807 180 -89.798 180 -3.46945e-018 8.7983 -4.7612 -0.0504285 5.88982 -0.115924 0 8.0291 0.4195 -0.0895185 11.7797 -0.228431 1.38778e-017 9.9351 -2.2114 -0.0895188 11.7797 -0.228432 2.77556e-017 22.3885 -0.4656 -8.48894 9.53229 1.36853 -0.0001 12.643 3.4389 9.99907 -0.00417081 35.9978 2.2603 21.606 7.4023 -19.9856 -12.5935 -13.5747 13.5163 -1.1332 -5.0146 22.948 29.5724 18.9736 -0.0995 -28.05 -0.2431 -0.70611 -44.9691 -31.2911 0.0679 -23.3996 -0.1402 -7.39786 5.99272 -26.6513 0.7932 -9.069 2.5189 -1.09999e-006 6.13298e-006 5.33082e-006 -0.8272 -3.3923 0.5977 3.35649e-006 9.79237e-007 6.23649e-007 -0.5649 -2.3158 0.4082 -3.97091e-006 -2.42616e-006 3.46024e-006 0.9159 -9.2044 0.2193 -1.09999e-006 6.13298e-006 5.33082e-006 0.0117 -4.1944 -0.0248 -0.0128206 0.00232855 8.7917e-005 0.0071 -2.3249 -0.0142 8.8686e-007 -7.87451e-007 3.60072e-006 0.6113 -8.7231 -2.0637 -1.09999e-006 6.13298e-006 5.33082e-006 -0.1927 -3.8059 -0.2383 -0.0160458 0.00299097 0.000858222 -0.1091 -2.1688 -0.1362 2.25737e-006 -6.20848e-007 5.95452e-006 -0.6151 -8.0947 -3.5641 -1.09999e-006 6.13298e-006 5.33082e-006 -0.4882 -2.341 -0.6462 -0.0126092 0.00314689 0.00283807 -0.3575 -1.7167 -0.4742 1.06239e-006 -4.26961e-006 4.39604e-006 -1.42 -1.8761 1.4223 -1.09999e-006 6.13298e-006 5.33082e-006 -1.1471 -3.4929 2.6334 3.35649e-006 9.79237e-007 6.23649e-007 -0.823 -2.3 1.6571 -3.97091e-006 -2.42616e-006 3.46024e-006 -2.2603 21.606 7.4023 18.706 -12.3079 7.45951 -13.5187 -1.1334 -5.0155 -24.9595 28.4199 -12.9289 0.0994 -28.0499 -0.2431 -0.262796 -46.1815 29.9833 -0.0679 -23.3996 -0.1402 6.29393 6.71535 25.3718 -0.7932 -9.0691 2.5189 2.42129e-006 8.41909e-006 -3.62787e-007 0.8272 -3.3923 0.5977 2.38542e-015 -3.18055e-015 -1.78906e-015 0.565 -2.3158 0.4082 1.98785e-015 -3.18055e-015 5.06901e-015 -0.916 -9.2044 0.2193 2.42129e-006 8.41909e-006 -3.62787e-007 -0.0117 -4.1944 -0.0248 0.012943 0.00230569 -8.11481e-005 -0.0071 -2.3249 -0.0142 7.95139e-016 1.59028e-015 8.94531e-016 -0.6113 -8.7231 -2.0637 2.42129e-006 8.41909e-006 -3.62787e-007 0.1927 -3.8059 -0.2383 0.0163555 0.00302614 -0.000867124 0.1091 -2.1688 -0.1362 -1.19271e-015 1.59028e-015 1.04362e-014 0.6151 -8.0947 -3.564 2.42129e-006 8.41909e-006 -3.62787e-007 0.4882 -2.341 -0.6462 0.014579 0.00366859 -0.00326241 0.3574 -1.7166 -0.4742 -2.78299e-015 -3.18055e-015 1.2424e-014 1.4199 -1.8761 1.4221 2.42129e-006 8.41909e-006 -3.62787e-007 1.1472 -3.4929 2.6336 2.38542e-015 -3.18055e-015 -1.78906e-015 0.8229 -2.3 1.6571 1.98785e-015 -3.18055e-015 5.06901e-015 -9.412 3.9771 -0.7758 -6.65448 -35.5134 13.3678 -0.7531 -40.938 3.77476e-015 47.7379 14.8942 -58.679 0 -40.1986 0 -11.2029 19.9368 -3.9328 -3.55271e-015 -4.4182 9.239 -3.60814e-006 5.28879e-006 -8.38797e-007 9.4119 3.9773 -0.7758 10.0758 -34.8117 -12.2543 0.7532 -40.9383 -2.66454e-015 -48.4436 3.35178 42.0052 3.55271e-015 -40.1986 0 12.1978 21.8013 3.65304 -3.55271e-015 -4.4182 9.239 -3.18055e-015 -1.59028e-015 -7.95139e-016 
-0.0153575 2.9249 -1.11819 180 -89.6646 180 0 8.7983 -4.7612 -0.0502243 5.84359 -0.116048 0 8.0291 0.4195 -0.0891801 11.6873 -0.228715 1.38778e-017 9.9351 -2.2114 -0.0891803 11.6874 -0.228716 0 22.3885 -0.4656 -8.4427 9.58012 1.36454 -0.0001 12.643 3.4389 9.99907 -0.0041356 35.9978 2.2603 21.606 7.4023 -19.9811 -12.3384 -13.325 13.5163 -1.1332 -5.0146 22.948 29.5725 18.9736 -0.0995 -28.05 -0.2431 -0.706076 -44.9692 -31.2911 0.0679 -23.3996 -0.1402 -7.39625 5.99769 -26.639 0.7932 -9.069 2.5189 -1.98785e-015 3.18055e-015 3.67752e-015 -0.8272 -3.3923 0.5977 -1.19271e-015 0 3.97569e-016 -0.5649 -2.3158 0.4082 -7.95139e-016 1.59028e-015 -3.03147e-015 0.9159 -9.2044 0.2193 -1.98785e-015 3.18055e-015 3.67752e-015 0.0117 -4.1944 -0.0248 -0.012839 0.00233679 8.97319e-005 0.0071 -2.3249 -0.0142 1.05303e-005 -1.22793e-005 -7.63755e-006 0.6113 -8.7231 -2.0637 -1.98785e-015 3.18055e-015 3.67752e-015 -0.1927 -3.8059 -0.2383 -0.0160428 0.00299848 0.000856004 -0.1091 -2.1688 -0.1362 -4.79122e-006 5.8802e-006 -1.54557e-006 -0.6151 -8.0947 -3.5641 -1.98785e-015 3.18055e-015 3.67752e-015 -0.4882 -2.341 -0.6462 -0.0125701 0.00311838 0.0028209 -0.3575 -1.7167 -0.4742 2.38542e-015 -4.77083e-015 -7.95139e-015 -1.42 -1.8761 1.4223 -1.98785e-015 3.18055e-015 3.67752e-015 -1.1471 -3.4929 2.6334 -1.19271e-015 0 3.97569e-016 -0.823 -2.3 1.6571 -7.95139e-016 1.59028e-015 -3.03147e-015 -2.2603 21.606 7.4023 18.6924 -12.0502 7.21998 -13.5187 -1.1334 -5.0155 -24.9595 28.4199 -12.929 0.0994 -28.0499 -0.2431 -0.262812 -46.1816 29.9833 -0.0679 -23.3996 -0.1402 6.30682 6.65052 25.5061 -0.7932 -9.0691 2.5189 -3.97569e-015 3.18055e-015 6.06293e-015 0.8272 -3.3923 0.5977 -1.98785e-015 -3.18055e-015 2.68359e-015 0.565 -2.3158 0.4082 3.97569e-016 -1.59028e-015 1.27222e-014 -0.916 -9.2044 0.2193 -3.97569e-015 3.18055e-015 6.06293e-015 -0.0117 -4.1944 -0.0248 0.0129587 0.00231755 -8.83141e-005 -0.0071 -2.3249 -0.0142 -7.95139e-016 0 2.5842e-015 -0.6113 -8.7231 -2.0637 -3.97569e-015 3.18055e-015 6.06293e-015 0.1927 -3.8059 -0.2383 0.0163348 0.00304268 -0.000870513 0.1091 -2.1688 -0.1362 1.59028e-015 3.18055e-015 -6.16232e-015 0.6151 -8.0947 -3.564 -3.97569e-015 3.18055e-015 6.06293e-015 0.4882 -2.341 -0.6462 0.0145655 0.0036759 -0.00325943 0.3574 -1.7166 -0.4742 -2.96671e-006 7.41099e-007 -2.94037e-006 1.4199 -1.8761 1.4221 -3.97569e-015 3.18055e-015 6.06293e-015 1.1472 -3.4929 2.6336 -1.98785e-015 -3.18055e-015 2.68359e-015 0.8229 -2.3 1.6571 3.97569e-016 -1.59028e-015 1.27222e-014 -9.412 3.9771 -0.7758 -6.65167 -35.5097 13.3631 -0.7531 -40.938 8.88178e-016 47.9122 15.0599 -58.7372 -1.77636e-015 -40.1986 7.10543e-015 -11.2045 19.9296 -3.92938 0 -4.4182 9.239 -7.77106e-006 1.11222e-005 3.28727e-006 9.4119 3.9773 -0.7758 10.0828 -34.8097 -12.2433 0.7532 -40.9383 -1.77636e-015 -48.4248 3.47623 41.9971 -3.55271e-015 -40.1986 3.55271e-015 12.199 21.8027 3.65419 0 -4.4182 9.239 6.89969e-007 -5.26377e-007 -3.24262e-006 
-0.0137324 2.94324 -1.12835 -180 -89.5312 -180 0 8.7983 -4.7612 -0.0500198 5.79733 -0.116172 0 8.0291 0.4195 -0.0888415 11.5947 -0.228999 -1.38778e-017 9.9351 -2.2114 -0.0888417 11.5948 -0.229 0 22.3885 -0.4656 -8.39644 9.62787 1.3605 -0.0001 12.643 3.4389 9.99908 -0.00412657 35.9978 2.2603 21.606 7.4023 -19.9778 -12.0833 -13.0755 13.5163 -1.1332 -5.0146 22.948 29.5725 18.9736 -0.0995 -28.05 -0.2431 -0.706076 -44.9692 -31.2912 0.0679 -23.3996 -0.1402 -7.39467 6.00256 -26.6267 0.7932 -9.069 2.5189 1.39149e-015 0 -1.69961e-014 -0.8272 -3.3923 0.5977 0 0 -2.06239e-014 -0.5649 -2.3158 0.4082 7.95139e-016 1.59028e-015 -1.76918e-014 0.9159 -9.2044 0.2193 1.39149e-015 0 -1.69961e-014 0.0117 -4.1944 -0.0248 -0.0128267 0.00232888 7.95993e-005 0.0071 -2.3249 -0.0142 -1.19271e-015 3.18055e-015 1.49089e-016 0.6113 -8.7231 -2.0637 1.39149e-015 0 -1.69961e-014 -0.1927 -3.8059 -0.2383 -0.016055 0.00300878 0.000855604 -0.1091 -2.1688 -0.1362 7.95139e-016 0 9.93923e-017 -0.6151 -8.0947 -3.5641 1.39149e-015 0 -1.69961e-014 -0.4882 -2.341 -0.6462 -0.0126021 0.00312939 0.00283101 -0.3575 -1.7167 -0.4742 -2.29093e-006 -1.88441e-006 3.80318e-006 -1.42 -1.8761 1.4223 1.39149e-015 0 -1.69961e-014 -1.1471 -3.4929 2.6334 0 0 -2.06239e-014 -0.823 -2.3 1.6571 7.95139e-016 1.59028e-015 -1.76918e-014 -2.2603 21.606 7.4023 18.6798 -11.7924 6.98071 -13.5187 -1.1334 -5.0155 -24.9595 28.4198 -12.9289 0.0994 -28.0499 -0.2431 -0.262769 -46.1815 29.9833 -0.0679 -23.3996 -0.1402 6.31984 6.5857 25.6404 -0.7932 -9.0691 2.5189 -2.75869e-033 -1.59028e-015 -9.93923e-017 0.8272 -3.3923 0.5977 2.78299e-015 -1.59028e-015 -6.26172e-015 0.565 -2.3158 0.4082 1.19271e-015 -1.59028e-015 -1.90833e-014 -0.916 -9.2044 0.2193 -2.75869e-033 -1.59028e-015 -9.93923e-017 -0.0117 -4.1944 -0.0248 0.0129427 0.00231052 -8.6032e-005 -0.0071 -2.3249 -0.0142 1.19271e-015 0 5.56597e-015 -0.6113 -8.7231 -2.0637 -2.75869e-033 -1.59028e-015 -9.93923e-017 0.1927 -3.8059 -0.2383 0.0163167 0.00302867 -0.000870798 0.1091 -2.1688 -0.1362 1.59028e-015 -1.59028e-015 -9.93923e-016 0.6151 -8.0947 -3.564 -2.75869e-033 -1.59028e-015 -9.93923e-017 0.4882 -2.341 -0.6462 0.0145704 0.00366943 -0.00325628 0.3574 -1.7166 -0.4742 3.97569e-015 3.18055e-015 -5.96354e-016 1.4199 -1.8761 1.4221 -2.75869e-033 -1.59028e-015 -9.93923e-017 1.1472 -3.4929 2.6336 2.78299e-015 -1.59028e-015 -6.26172e-015 0.8229 -2.3 1.6571 1.19271e-015 -1.59028e-015 -1.90833e-014 -9.412 3.9771 -0.7758 -6.64948 -35.5037 13.358 -0.7531 -40.938 -4.44089e-015 48.0863 15.2237 -58.794 3.55271e-015 -40.1986 0 -11.2061 19.9223 -3.92595 0 -4.4182 9.239 -1.11145e-005 2.27346e-005 5.10581e-006 9.4119 3.9773 -0.7758 10.0897 -34.8077 -12.2324 0.7532 -40.9383 8.65974e-015 -48.406 3.60068 41.989 0 -40.1986 3.55271e-015 12.2002 21.8042 3.65534 3.55271e-015 -4.4182 9.239 9.0017e-006 2.93191e-005 -2.33467e-007 
-0.0121091 2.96157 -1.13855 180 -89.3978 180 -1.73472e-018 8.7983 -4.7612 -0.0498145 5.75088 -0.116295 -3.46945e-018 8.0291 0.4195 -0.0885021 11.5018 -0.229281 1.38778e-017 9.9351 -2.2114 -0.0885023 11.5019 -0.229282 5.55112e-017 22.3885 -0.4656 -8.35017 9.67577 1.35643 -0.0001 12.643 3.4389 9.99906 -0.00413336 35.9978 2.2603 21.606 7.4023 -19.9755 -11.8279 -12.8262 13.5163 -1.1332 -5.0146 22.9479 29.5726 18.9736 -0.0995 -28.05 -0.2431 -0.706007 -44.9693 -31.2911 0.0679 -23.3996 -0.1402 -7.39312 6.00752 -26.6143 0.7932 -9.069 2.5189 5.96354e-016 0 9.93923e-017 -0.8272 -3.3923 0.5977 5.96354e-016 -1.59028e-015 2.48481e-016 -0.5649 -2.3158 0.4082 7.95139e-016 -1.59028e-015 4.47266e-016 0.9159 -9.2044 0.2193 5.96354e-016 0 9.93923e-017 0.0117 -4.1944 -0.0248 -0.012815 0.00232314 9.04054e-005 0.0071 -2.3249 -0.0142 -7.95139e-016 -1.59028e-015 4.67144e-015 0.6113 -8.7231 -2.0637 5.96354e-016 0 9.93923e-017 -0.1927 -3.8059 -0.2383 -0.0160444 0.00299676 0.000861684 -0.1091 -2.1688 -0.1362 1.98785e-016 3.18055e-015 -3.62782e-015 -0.6151 -8.0947 -3.5641 5.96354e-016 0 9.93923e-017 -0.4882 -2.341 -0.6462 -0.0125991 0.00312327 0.00283494 -0.3575 -1.7167 -0.4742 -6.08154e-006 8.70758e-006 2.8746e-006 -1.42 -1.8761 1.4223 5.96354e-016 0 9.93923e-017 -1.1471 -3.4929 2.6334 5.96354e-016 -1.59028e-015 2.48481e-016 -0.823 -2.3 1.6571 7.95139e-016 -1.59028e-015 4.47266e-016 -2.2603 21.606 7.4023 18.6684 -11.5344 6.74161 -13.5187 -1.1334 -5.0155 -24.9596 28.4198 -12.9289 0.0994 -28.0499 -0.2431 -0.262715 -46.1815 29.9833 -0.0679 -23.3996 -0.1402 6.33305 6.5209 25.7747 -0.7932 -9.0691 2.5189 -1.59028e-015 -3.18055e-015 -3.97569e-016 0.8272 -3.3923 0.5977 -2.38542e-015 -3.18055e-015 5.56597e-015 0.565 -2.3158 0.4082 -1.98785e-015 -1.59028e-015 5.36719e-015 -0.916 -9.2044 0.2193 -1.59028e-015 -3.18055e-015 -3.97569e-016 -0.0117 -4.1944 -0.0248 0.0129529 0.0023279 -8.68238e-005 -0.0071 -2.3249 -0.0142 7.95139e-016 1.59028e-015 3.67752e-015 -0.6113 -8.7231 -2.0637 -1.59028e-015 -3.18055e-015 -3.97569e-016 0.1927 -3.8059 -0.2383 0.0163341 0.00302571 -0.000869218 0.1091 -2.1688 -0.1362 2.38542e-015 0 -3.97569e-015 0.6151 -8.0947 -3.564 -1.59028e-015 -3.18055e-015 -3.97569e-016 0.4882 -2.341 -0.6462 0.0145774 0.00367432 -0.00325514 0.3574 -1.7166 -0.4742 7.95139e-016 1.59028e-014 -5.66536e-015 1.4199 -1.8761 1.4221 -1.59028e-015 -3.18055e-015 -3.97569e-016 1.1472 -3.4929 2.6336 -2.38542e-015 -3.18055e-015 5.56597e-015 0.8229 -2.3 1.6571 -1.98785e-015 -1.59028e-015 5.36719e-015 -9.412 3.9771 -0.7758 -6.6467 -35.5002 13.3532 -0.7531 -40.938 2.22045e-016 48.2614 15.3892 -58.8536 0 -40.1986 0 -11.2077 19.9151 -3.92245 -3.55271e-015 -4.4182 9.239 -1.21611e-005 1.55202e-005 2.35193e-006 9.4119 3.9773 -0.7758 10.0967 -34.8059 -12.2215 0.7532 -40.9383 -5.55112e-015 -48.3873 3.72522 41.981 -3.55271e-015 -40.1986 -3.55271e-015 12.2015 21.8056 3.65643 0 -4.4182 9.239 6.36111e-015 6.36111e-015 -0 
